# xmcd CD database file
#
# Track frame offsets:
#	150
#	15124
#	31561
#	41920
#	59885
#	79264
#	95824
#	121834
#	143686
#	162755
#	184882
#	207656
#	244096
#	260938
#	283450
#
# Disc length: 4104 seconds
#
# Revision: 0
# Processed by: cddbd v1.5.1PL0 Copyright (c) Steve Scherf et al.
# Submitted via: CDex 1.51
#
DISCID=e010060f
DTITLE=Michel Jonasz - La Musique Les Voyages L Amour
DYEAR=2001
DGENRE=Jazz
TTITLE0=Les fourmis rouges
TTITLE1=C'est la nuit
TTITLE2=J't'aimais tellement fort que J 't'aime encore
TTITLE3=Lucille
TTITLE4=Quand elle part j'ai l'coeur Serré
TTITLE5=Nos deux noms
TTITLE6=Poussi
TTITLE7=Je t'aime
TTITLE8=Lune
TTITLE9=Tombent les feuilles
TTITLE10=Guigui (Live)
TTITLE11=J'veux pas que tu t'en ailles (Live)
TTITLE12=Hannah
TTITLE13=C'est toi
TTITLE14=Super Nana (Live)
EXTD=YEAR: 2001
EXTT0=
EXTT1=
EXTT2=
EXTT3=
EXTT4=
EXTT5=
EXTT6=
EXTT7=
EXTT8=
EXTT9=
EXTT10=
EXTT11=
EXTT12=
EXTT13=
EXTT14=
PLAYORDER=
